<svg xmlns="http://www.w3.org/2000/svg" viewBox="0 0 994.93 403.9"><defs><style>.cls-1,.cls-2{fill:#fff;}.cls-1{opacity:0.9;}</style></defs><g id="Layer_2" data-name="Layer 2"><g id="Layer_1-2" data-name="Layer 1"><path class="cls-1" d="M894,51.3C764.69-46.21,583.24,2.12,513.83,138.64h2.24C585.88,5.75,764.82-40.93,891.16,55.11c96.26,72.07,121.94,195.68,81.53,296.44,1,.18,2,.36,3,.58C1017.41,250.35,991.72,125.1,894,51.3Z"/><path class="cls-2" d="M878.72,71.6c-113.2-85-270.22-46.46-336.08,68.49,1.24-.15,2.48-.28,3.74-.38C612.88,30.26,765.69-5.67,874.56,77.11,963.11,143.38,984.81,258.6,943.88,350h4.64C990.84,257.27,969,140.09,878.72,71.6Z"/><path class="cls-1" d="M942.3,227.22C928.44,116.22,822.17,36,711.63,53.14,650.39,62.77,603.45,95.72,574,139.26h5.21C642,54.74,767.3,30.36,858,99.11c81.29,61,98.65,169,55.81,250.87h6.07C938.85,315,947.92,273.15,942.3,227.22Z"/><path class="cls-2" d="M917,230.76C905.1,133.51,812,63.2,715.17,78.48c-46.24,7.43-83.07,30.1-108.69,60.78h8.19a171.2,171.2,0,0,1,39-30.36c130.72-73.27,285.51,43.51,250.92,189.33A171.19,171.19,0,0,1,882.53,350h7.1C911.24,317.25,922.38,276.35,917,230.76Z"/><path class="cls-1" d="M891.61,234.31c-6.91-60.54-53.81-113.45-113.06-127.7C730,93.7,679.42,108.06,643.13,139.26h13.34c3.55-2.41,7.19-4.74,11-6.89,109.78-60.56,238.88,36.84,210.77,159A141.58,141.58,0,0,1,849.17,350h7.93C882.54,320.23,896.93,280.08,891.61,234.31Z"/><path class="cls-2" d="M866.27,237.85c-7.56-69.47-75.12-120.48-144-108.7a129.54,129.54,0,0,0-32.76,10.11H738A114.33,114.33,0,0,1,839.52,200.9c13.62,23.67,19.21,52.64,12.4,83.66A114.4,114.4,0,0,1,810.78,350h9.08C851.39,325.1,871.45,285.14,866.27,237.85Z"/><path class="cls-1" d="M823.45,202.64a80.9,80.9,0,0,0-33-33.91c-14.21-7.83-31.38-11.8-51-11.8H668.89V354.14h69.94c19.84,0,37.15-4,51.46-11.85a80.75,80.75,0,0,0,33.16-34.05c7.68-14.69,11.57-32.48,11.57-52.9S831.13,217.26,823.45,202.64Zm-111.56-8.49h25.32c12,0,22.16,2.15,30.3,6.38a40.86,40.86,0,0,1,18.37,19.8c4.14,9,6.24,20.77,6.24,35s-2.1,26.23-6.24,35.25a41,41,0,0,1-18.42,19.9c-8.17,4.26-18.38,6.43-30.34,6.43H711.89Z"/><path class="cls-1" d="M607.94,213.14l57.78-56.21-5.19.59H538.08l-14.4,33.67h58.76L533.12,247l45.84-6.2.09,0a42.8,42.8,0,1,1-45.18,42.69v-1.92H499.69v1.92a77.08,77.08,0,0,0,76.87,77.12c42.38,0,76.87-34.59,76.87-77.12A76.76,76.76,0,0,0,607.94,213.14Z"/><path class="cls-2" d="M0,199.56l1.1-42.51H140.15l-12.61,42.51h-37v155H41.14v-155Z"/><path class="cls-2" d="M141.25,180.91a25,25,0,0,1,7.27-18,23.62,23.62,0,0,1,17.69-7.54,25.3,25.3,0,0,1,25.24,25.23A24,24,0,0,1,184,198.18q-7.39,7.41-17,7.41a25.72,25.72,0,0,1-18.11-7.13A23,23,0,0,1,141.25,180.91Zm1.37,173.62V234.39l45.26-23.31V354.53Z"/><path class="cls-2" d="M303.08,229.73v-54.9l45.25-23.61V354.53H305.27V339.17q-8.52,12.88-22.77,16.18t-21.12,3.29q-22.77,0-39.35-16.18T203.1,310.78q-2.34-15.5-2.61-19.61t-.27-7.68q0-26.88,13.71-45.67T240,216.29q12.34-2.74,15.63-3c2.2-.18,4.57-.27,7.13-.27a56.41,56.41,0,0,1,37.58,14Zm-56.23,53.48q0,15.09,6.44,24.69t13.57,11.24a52.53,52.53,0,0,0,10.7,1.65,24.25,24.25,0,0,0,18.24-7.54q7.27-7.54,7.28-20.16,0-23.31-4.26-32.51t-12.2-11a61.28,61.28,0,0,0-11-1.78,26,26,0,0,0-20.57,9.6Q246.85,267,246.85,283.21Z"/><path class="cls-2" d="M353,216.29h49.37l26.88,76L432,303.78c.18,1.65.42,3.21.69,4.67a30.87,30.87,0,0,1,.41,5.48l1.64-10.42,2.47-11.79,28-75.43h49.92L434.72,403.9H384l26.06-54Z"/></g></g></svg>