<svg width="52" height="40" viewBox="0 0 52 40" fill="none" xmlns="http://www.w3.org/2000/svg">
<path d="M43.9121 13.0879C43.9684 13.0316 44.0447 13 44.1243 13H51.2757C51.543 13 51.6769 13.3231 51.4879 13.5121L31.0879 33.9121C31.0316 33.9684 30.9553 34 30.8757 34H23.7243C23.457 34 23.3231 33.6769 23.5121 33.4879L43.9121 13.0879Z" fill="black"/>
<path fill-rule="evenodd" clip-rule="evenodd" d="M41.1243 0C41.0447 0 40.9684 0.0316076 40.9121 0.0878677L34 7H23.2769C23.2765 7 23.2761 7 23.2757 7H16.1243C16.0447 7 15.9684 7.03161 15.9121 7.08787L10.5121 12.4879C10.512 12.488 10.5119 12.4881 10.5119 12.4881L0.512133 22.4879C0.323144 22.6769 0.456994 23 0.724265 23H7.87574C7.9553 23 8.03161 22.9684 8.08787 22.9121L18 13H28L23.5121 17.4879C23.3231 17.6769 23.457 18 23.7243 18H30.8757C30.9553 18 31.0316 17.9684 31.0879 17.9121L48.4879 0.512132C48.6769 0.323143 48.543 0 48.2757 0H41.1243ZM19.1243 22C19.0447 22 18.9684 22.0316 18.9121 22.0879L1.51213 39.4879C1.32314 39.6769 1.45699 40 1.72427 40H8.87574C8.9553 40 9.03161 39.9684 9.08787 39.9121L26.4879 22.5121C26.6769 22.3231 26.543 22 26.2757 22H19.1243Z" fill="#C43959"/>
</svg>
